<svg width="196" height="30" viewBox="0 0 196 30" fill="none" xmlns="http://www.w3.org/2000/svg">
<circle cx="118.5" cy="13.5" r="3.5" fill="black"/>
<path d="M25.18 1.92C27.556 1.92 29.416 2.604 30.76 3.972C32.128 5.34 32.812 7.356 32.812 10.02V21H30.256V10.272C30.256 8.304 29.776 6.804 28.816 5.772C27.88 4.74 26.548 4.224 24.82 4.224C22.852 4.224 21.304 4.836 20.176 6.06C19.048 7.26 18.484 8.928 18.484 11.064V21H15.928V10.272C15.928 8.304 15.448 6.804 14.488 5.772C13.552 4.74 12.208 4.224 10.456 4.224C8.512 4.224 6.964 4.836 5.812 6.06C4.684 7.26 4.12 8.928 4.12 11.064V21H1.564V2.064H4.012V5.52C4.684 4.368 5.62 3.48 6.82 2.856C8.02 2.232 9.4 1.92 10.96 1.92C12.544 1.92 13.912 2.256 15.064 2.928C16.24 3.6 17.116 4.596 17.692 5.916C18.388 4.668 19.384 3.696 20.68 3C22 2.28 23.5 1.92 25.18 1.92ZM56.8077 2.064V21H54.3597V17.544C53.6877 18.696 52.7637 19.596 51.5877 20.244C50.4117 20.868 49.0677 21.18 47.5557 21.18C45.0837 21.18 43.1277 20.496 41.6877 19.128C40.2717 17.736 39.5637 15.708 39.5637 13.044V2.064H42.1197V12.792C42.1197 14.784 42.6117 16.296 43.5957 17.328C44.5797 18.36 45.9837 18.876 47.8077 18.876C49.7997 18.876 51.3717 18.276 52.5237 17.076C53.6757 15.852 54.2517 14.16 54.2517 12V2.064H56.8077ZM73.6143 1.92C75.9903 1.92 77.8743 2.616 79.2663 4.008C80.6823 5.376 81.3903 7.38 81.3903 10.02V21H78.8343V10.272C78.8343 8.304 78.3423 6.804 77.3583 5.772C76.3743 4.74 74.9703 4.224 73.1463 4.224C71.1063 4.224 69.4863 4.836 68.2863 6.06C67.1103 7.26 66.5223 8.928 66.5223 11.064V21H63.9663V2.064H66.4143V5.556C67.1103 4.404 68.0703 3.516 69.2943 2.892C70.5423 2.244 71.9823 1.92 73.6143 1.92ZM105.932 2.064V18.696C105.932 21.912 105.14 24.288 103.556 25.824C101.996 27.384 99.6319 28.164 96.4639 28.164C94.7119 28.164 93.0439 27.9 91.4599 27.372C89.8999 26.868 88.6279 26.16 87.6439 25.248L88.9399 23.304C89.8519 24.12 90.9559 24.756 92.2519 25.212C93.5719 25.668 94.9519 25.896 96.3919 25.896C98.7919 25.896 100.556 25.332 101.684 24.204C102.812 23.1 103.376 21.372 103.376 19.02V16.608C102.584 17.808 101.54 18.72 100.244 19.344C98.9719 19.968 97.5559 20.28 95.9959 20.28C94.2199 20.28 92.5999 19.896 91.1359 19.128C89.6959 18.336 88.5559 17.244 87.7159 15.852C86.8999 14.436 86.4919 12.84 86.4919 11.064C86.4919 9.288 86.8999 7.704 87.7159 6.312C88.5559 4.92 89.6959 3.84 91.1359 3.072C92.5759 2.304 94.1959 1.92 95.9959 1.92C97.6039 1.92 99.0559 2.244 100.352 2.892C101.648 3.54 102.692 4.476 103.484 5.7V2.064H105.932ZM96.2479 18.012C97.6159 18.012 98.8519 17.724 99.9559 17.148C101.06 16.548 101.912 15.72 102.512 14.664C103.136 13.608 103.448 12.408 103.448 11.064C103.448 9.72 103.136 8.532 102.512 7.5C101.912 6.444 101.06 5.628 99.9559 5.052C98.8759 4.452 97.6399 4.152 96.2479 4.152C94.8799 4.152 93.6439 4.44 92.5399 5.016C91.4599 5.592 90.6079 6.408 89.9839 7.464C89.3839 8.52 89.0839 9.72 89.0839 11.064C89.0839 12.408 89.3839 13.608 89.9839 14.664C90.6079 15.72 91.4599 16.548 92.5399 17.148C93.6439 17.724 94.8799 18.012 96.2479 18.012ZM149.455 2.064V18.696C149.455 21.912 148.663 24.288 147.079 25.824C145.519 27.384 143.155 28.164 139.987 28.164C138.235 28.164 136.567 27.9 134.983 27.372C133.423 26.868 132.151 26.16 131.167 25.248L132.463 23.304C133.375 24.12 134.479 24.756 135.775 25.212C137.095 25.668 138.475 25.896 139.915 25.896C142.315 25.896 144.079 25.332 145.207 24.204C146.335 23.1 146.899 21.372 146.899 19.02V16.608C146.107 17.808 145.063 18.72 143.767 19.344C142.495 19.968 141.079 20.28 139.519 20.28C137.743 20.28 136.123 19.896 134.659 19.128C133.219 18.336 132.079 17.244 131.239 15.852C130.423 14.436 130.015 12.84 130.015 11.064C130.015 9.288 130.423 7.704 131.239 6.312C132.079 4.92 133.219 3.84 134.659 3.072C136.099 2.304 137.719 1.92 139.519 1.92C141.127 1.92 142.579 2.244 143.875 2.892C145.171 3.54 146.215 4.476 147.007 5.7V2.064H149.455ZM139.771 18.012C141.139 18.012 142.375 17.724 143.479 17.148C144.583 16.548 145.435 15.72 146.035 14.664C146.659 13.608 146.971 12.408 146.971 11.064C146.971 9.72 146.659 8.532 146.035 7.5C145.435 6.444 144.583 5.628 143.479 5.052C142.399 4.452 141.163 4.152 139.771 4.152C138.403 4.152 137.167 4.44 136.063 5.016C134.983 5.592 134.131 6.408 133.507 7.464C132.907 8.52 132.607 9.72 132.607 11.064C132.607 12.408 132.907 13.608 133.507 14.664C134.131 15.72 134.983 16.548 136.063 17.148C137.167 17.724 138.403 18.012 139.771 18.012ZM163.227 1.92C165.699 1.92 167.595 2.544 168.915 3.792C170.235 5.016 170.895 6.84 170.895 9.264V21H168.447V18.048C167.871 19.032 167.019 19.8 165.891 20.352C164.787 20.904 163.467 21.18 161.931 21.18C159.819 21.18 158.139 20.676 156.891 19.668C155.643 18.66 155.019 17.328 155.019 15.672C155.019 14.064 155.595 12.768 156.747 11.784C157.923 10.8 159.783 10.308 162.327 10.308H168.339V9.156C168.339 7.524 167.883 6.288 166.971 5.448C166.059 4.584 164.727 4.152 162.975 4.152C161.775 4.152 160.623 4.356 159.519 4.764C158.415 5.148 157.467 5.688 156.675 6.384L155.523 4.476C156.483 3.66 157.635 3.036 158.979 2.604C160.323 2.148 161.739 1.92 163.227 1.92ZM162.327 19.164C163.767 19.164 165.003 18.84 166.035 18.192C167.067 17.52 167.835 16.56 168.339 15.312V12.216H162.399C159.159 12.216 157.539 13.344 157.539 15.6C157.539 16.704 157.959 17.58 158.799 18.228C159.639 18.852 160.815 19.164 162.327 19.164ZM194.396 12.324H178.556C178.7 14.292 179.456 15.888 180.824 17.112C182.192 18.312 183.92 18.912 186.008 18.912C187.184 18.912 188.264 18.708 189.248 18.3C190.232 17.868 191.084 17.244 191.804 16.428L193.244 18.084C192.404 19.092 191.348 19.86 190.076 20.388C188.828 20.916 187.448 21.18 185.936 21.18C183.992 21.18 182.264 20.772 180.752 19.956C179.264 19.116 178.1 17.964 177.26 16.5C176.42 15.036 176 13.38 176 11.532C176 9.684 176.396 8.028 177.188 6.564C178.004 5.1 179.108 3.96 180.5 3.144C181.916 2.328 183.5 1.92 185.252 1.92C187.004 1.92 188.576 2.328 189.968 3.144C191.36 3.96 192.452 5.1 193.244 6.564C194.036 8.004 194.432 9.66 194.432 11.532L194.396 12.324ZM185.252 4.116C183.428 4.116 181.892 4.704 180.644 5.88C179.42 7.032 178.724 8.544 178.556 10.416H191.984C191.816 8.544 191.108 7.032 189.86 5.88C188.636 4.704 187.1 4.116 185.252 4.116Z" fill="black"/>
<path d="M30.76 3.972L29.69 5.02327L29.6993 5.03266L30.76 3.972ZM32.812 21V22.5H34.312V21H32.812ZM30.256 21H28.756V22.5H30.256V21ZM28.816 5.772L27.7049 6.77972L27.7113 6.78673L27.7177 6.79366L28.816 5.772ZM20.176 6.06L21.2689 7.08736L21.274 7.08197L21.279 7.07652L20.176 6.06ZM18.484 21V22.5H19.984V21H18.484ZM15.928 21H14.428V22.5H15.928V21ZM14.488 5.772L13.3769 6.77972L13.3833 6.78673L13.3897 6.79366L14.488 5.772ZM5.812 6.06L4.7197 5.03195L4.71906 5.03263L5.812 6.06ZM4.12 21V22.5H5.62V21H4.12ZM1.564 21H0.0640002V22.5H1.564V21ZM1.564 2.064V0.563999H0.0640002V2.064H1.564ZM4.012 2.064H5.512V0.563999H4.012V2.064ZM4.012 5.52H2.512V11.0684L5.30767 6.27581L4.012 5.52ZM6.82 2.856L7.51203 4.18682L7.51203 4.18682L6.82 2.856ZM15.064 2.928L14.3082 4.22372L14.3198 4.23036L15.064 2.928ZM17.692 5.916L16.3172 6.51592L17.5278 9.29014L19.002 6.6466L17.692 5.916ZM20.68 3L21.3897 4.32152L21.3983 4.31684L20.68 3ZM25.18 3.42C27.2557 3.42 28.6924 4.00779 29.69 5.02323L31.83 2.92077C30.1396 1.20021 27.8563 0.419999 25.18 0.419999V3.42ZM29.6993 5.03266C30.6936 6.02696 31.312 7.60067 31.312 10.02H34.312C34.312 7.11133 33.5624 4.65304 31.8207 2.91134L29.6993 5.03266ZM31.312 10.02V21H34.312V10.02H31.312ZM32.812 19.5H30.256V22.5H32.812V19.5ZM31.756 21V10.272H28.756V21H31.756ZM31.756 10.272C31.756 8.07588 31.2196 6.15357 29.9143 4.75034L27.7177 6.79366C28.3324 7.45443 28.756 8.53212 28.756 10.272H31.756ZM29.9271 4.76428C28.6407 3.346 26.8618 2.724 24.82 2.724V5.724C26.2342 5.724 27.1193 6.134 27.7049 6.77972L29.9271 4.76428ZM24.82 2.724C22.5162 2.724 20.5369 3.455 19.073 5.04348L21.279 7.07652C22.0711 6.217 23.1878 5.724 24.82 5.724V2.724ZM19.0831 5.03263C17.6231 6.58582 16.984 8.66338 16.984 11.064H19.984C19.984 9.19262 20.4729 7.93418 21.2689 7.08736L19.0831 5.03263ZM16.984 11.064V21H19.984V11.064H16.984ZM18.484 19.5H15.928V22.5H18.484V19.5ZM17.428 21V10.272H14.428V21H17.428ZM17.428 10.272C17.428 8.07588 16.8916 6.15357 15.5863 4.75034L13.3897 6.79366C14.0044 7.45443 14.428 8.53212 14.428 10.272H17.428ZM15.5991 4.76428C14.3088 3.34167 12.5145 2.724 10.456 2.724V5.724C11.9015 5.724 12.7952 6.13833 13.3769 6.77972L15.5991 4.76428ZM10.456 2.724C8.16919 2.724 6.20028 3.45884 4.7197 5.03195L6.9043 7.08805C7.72772 6.21316 8.85481 5.724 10.456 5.724V2.724ZM4.71906 5.03263C3.25907 6.58582 2.62 8.66338 2.62 11.064H5.62C5.62 9.19262 6.10893 7.93418 6.90494 7.08736L4.71906 5.03263ZM2.62 11.064V21H5.62V11.064H2.62ZM4.12 19.5H1.564V22.5H4.12V19.5ZM3.064 21V2.064H0.0640002V21H3.064ZM1.564 3.564H4.012V0.563999H1.564V3.564ZM2.512 2.064V5.52H5.512V2.064H2.512ZM5.30767 6.27581C5.83471 5.37231 6.55977 4.682 7.51203 4.18682L6.12797 1.52517C4.68023 2.278 3.53329 3.36369 2.71633 4.76419L5.30767 6.27581ZM7.51203 4.18682C8.46762 3.68992 9.60379 3.42 10.96 3.42V0.419999C9.19621 0.419999 7.57238 0.774079 6.12797 1.52517L7.51203 4.18682ZM10.96 3.42C12.3285 3.42 13.4253 3.70866 14.3082 4.22367L15.8198 1.63233C14.3987 0.803343 12.7595 0.419999 10.96 0.419999V3.42ZM14.3198 4.23036C15.1972 4.73171 15.8616 5.47189 16.3172 6.51592L19.0668 5.31608C18.3704 3.72011 17.2828 2.46829 15.8082 1.62563L14.3198 4.23036ZM19.002 6.6466C19.5542 5.65654 20.3383 4.88613 21.3897 4.32149L19.9703 1.67851C18.4297 2.50586 17.2218 3.67946 16.382 5.1854L19.002 6.6466ZM21.3983 4.31684C22.4731 3.7306 23.721 3.42 25.18 3.42V0.419999C23.279 0.419999 21.5269 0.829398 19.9617 1.68316L21.3983 4.31684ZM56.8077 2.064H58.3077V0.563999H56.8077V2.064ZM56.8077 21V22.5H58.3077V21H56.8077ZM54.3597 21H52.8597V22.5H54.3597V21ZM54.3597 17.544H55.8597V11.9956L53.064 16.7882L54.3597 17.544ZM51.5877 20.244L52.2908 21.569L52.3012 21.5635L52.3116 21.5578L51.5877 20.244ZM41.6877 19.128L40.6361 20.1977L40.6453 20.2067L40.6546 20.2155L41.6877 19.128ZM39.5637 2.064V0.563999H38.0637V2.064H39.5637ZM42.1197 2.064H43.6197V0.563999H42.1197V2.064ZM43.5957 17.328L44.6813 16.2929L44.6813 16.2929L43.5957 17.328ZM52.5237 17.076L53.6058 18.1148L53.6109 18.1094L53.616 18.104L52.5237 17.076ZM54.2517 2.064V0.563999H52.7517V2.064H54.2517ZM55.3077 2.064V21H58.3077V2.064H55.3077ZM56.8077 19.5H54.3597V22.5H56.8077V19.5ZM55.8597 21V17.544H52.8597V21H55.8597ZM53.064 16.7882C52.5296 17.7043 51.804 18.4122 50.8638 18.9302L52.3116 21.5578C53.7234 20.7798 54.8457 19.6877 55.6554 18.2998L53.064 16.7882ZM50.8846 18.919C49.953 19.4133 48.8562 19.68 47.5557 19.68V22.68C49.2792 22.68 50.8703 22.3227 52.2908 21.569L50.8846 18.919ZM47.5557 19.68C45.3695 19.68 43.8179 19.0827 42.7208 18.0405L40.6546 20.2155C42.4375 21.9093 44.7979 22.68 47.5557 22.68V19.68ZM42.7392 18.0583C41.6976 17.0344 41.0637 15.4478 41.0637 13.044H38.0637C38.0637 15.9682 38.8457 18.4376 40.6361 20.1977L42.7392 18.0583ZM41.0637 13.044V2.064H38.0637V13.044H41.0637ZM39.5637 3.564H42.1197V0.563999H39.5637V3.564ZM40.6197 2.064V12.792H43.6197V2.064H40.6197ZM40.6197 12.792C40.6197 15.0152 41.1699 16.9575 42.5101 18.3631L44.6813 16.2929C44.0535 15.6345 43.6197 14.5528 43.6197 12.792H40.6197ZM42.5101 18.3631C43.851 19.7694 45.6944 20.376 47.8077 20.376V17.376C46.273 17.376 45.3084 16.9506 44.6813 16.2929L42.5101 18.3631ZM47.8077 20.376C50.1212 20.376 52.1159 19.6668 53.6058 18.1148L51.4416 16.0372C50.6275 16.8852 49.4782 17.376 47.8077 17.376V20.376ZM53.616 18.104C55.0982 16.5292 55.7517 14.4292 55.7517 12H52.7517C52.7517 13.8908 52.2532 15.1748 51.4314 16.048L53.616 18.104ZM55.7517 12V2.064H52.7517V12H55.7517ZM54.2517 3.564H56.8077V0.563999H54.2517V3.564ZM79.2663 4.008L78.2057 5.06866L78.2148 5.0778L78.2241 5.08679L79.2663 4.008ZM81.3903 21V22.5H82.8903V21H81.3903ZM78.8343 21H77.3343V22.5H78.8343V21ZM77.3583 5.772L76.2727 6.80711L76.2727 6.80711L77.3583 5.772ZM68.2863 6.06L67.2152 5.00989L67.215 5.01011L68.2863 6.06ZM66.5223 21V22.5H68.0223V21H66.5223ZM63.9663 21H62.4663V22.5H63.9663V21ZM63.9663 2.064V0.563999H62.4663V2.064H63.9663ZM66.4143 2.064H67.9143V0.563999H66.4143V2.064ZM66.4143 5.556H64.9143V10.9395L67.6982 6.33167L66.4143 5.556ZM69.2943 2.892L69.9756 4.2284L69.9856 4.22324L69.2943 2.892ZM73.6143 3.42C75.6805 3.42 77.1516 4.01459 78.2057 5.06866L80.327 2.94734C78.5971 1.21741 76.3002 0.419999 73.6143 0.419999V3.42ZM78.2241 5.08679C79.2582 6.08581 79.8903 7.64305 79.8903 10.02H82.8903C82.8903 7.11695 82.1065 4.66619 80.3086 2.92921L78.2241 5.08679ZM79.8903 10.02V21H82.8903V10.02H79.8903ZM81.3903 19.5H78.8343V22.5H81.3903V19.5ZM80.3343 21V10.272H77.3343V21H80.3343ZM80.3343 10.272C80.3343 8.06697 79.7812 6.13942 78.444 4.73689L76.2727 6.80711C76.9034 7.46858 77.3343 8.54103 77.3343 10.272H80.3343ZM78.444 4.73689C77.103 3.33057 75.2596 2.724 73.1463 2.724V5.724C74.6811 5.724 75.6456 6.14943 76.2727 6.80711L78.444 4.73689ZM73.1463 2.724C70.7858 2.724 68.7503 3.44415 67.2152 5.00989L69.3575 7.11011C70.2224 6.22785 71.4268 5.724 73.1463 5.724V2.724ZM67.215 5.01011C65.695 6.56116 65.0223 8.64694 65.0223 11.064H68.0223C68.0223 9.20906 68.5257 7.95883 69.3577 7.10989L67.215 5.01011ZM65.0223 11.064V21H68.0223V11.064H65.0223ZM66.5223 19.5H63.9663V22.5H66.5223V19.5ZM65.4663 21V2.064H62.4663V21H65.4663ZM63.9663 3.564H66.4143V0.563999H63.9663V3.564ZM64.9143 2.064V5.556H67.9143V2.064H64.9143ZM67.6982 6.33167C68.2464 5.42429 68.9954 4.72809 69.9756 4.22836L68.6131 1.55564C67.1453 2.30391 65.9743 3.3837 65.1305 4.78033L67.6982 6.33167ZM69.9856 4.22324C70.9881 3.70269 72.1842 3.42 73.6143 3.42V0.419999C71.7805 0.419999 70.0966 0.785308 68.6031 1.56076L69.9856 4.22324ZM105.932 2.064H107.432V0.563999H105.932V2.064ZM103.556 25.824L102.512 24.7471L102.503 24.7552L102.495 24.7633L103.556 25.824ZM91.4599 27.372L91.9343 25.9489L91.9211 25.9446L91.4599 27.372ZM87.6439 25.248L86.3959 24.4159L85.6869 25.4794L86.6243 26.3481L87.6439 25.248ZM88.9399 23.304L89.9401 22.1861L88.6512 21.0329L87.6919 22.4719L88.9399 23.304ZM92.2519 25.212L91.7541 26.627L91.7622 26.6298L92.2519 25.212ZM101.684 24.204L100.635 23.132L100.629 23.1376L100.623 23.1433L101.684 24.204ZM103.376 16.608H104.876V11.6122L102.124 15.7817L103.376 16.608ZM100.244 19.344L99.5932 17.9925L99.5833 17.9973L100.244 19.344ZM91.1359 19.128L90.4131 20.4423L90.426 20.4495L90.4391 20.4563L91.1359 19.128ZM87.7159 15.852L86.4163 16.6009L86.4238 16.614L86.4317 16.627L87.7159 15.852ZM87.7159 6.312L86.4317 5.537L86.4267 5.54518L86.4219 5.55342L87.7159 6.312ZM91.1359 3.072L91.8418 4.39553L91.8418 4.39553L91.1359 3.072ZM100.352 2.892L101.023 1.55036L101.023 1.55036L100.352 2.892ZM103.484 5.7L102.225 6.51488L104.984 10.7793V5.7H103.484ZM103.484 2.064V0.563999H101.984V2.064H103.484ZM99.9559 17.148L100.65 18.4779L100.661 18.472L100.672 18.4659L99.9559 17.148ZM102.512 14.664L101.221 13.9009L101.214 13.9119L101.208 13.923L102.512 14.664ZM102.512 7.5L101.208 8.24101L101.218 8.25871L101.228 8.27613L102.512 7.5ZM99.9559 5.052L99.2275 6.36324L99.2447 6.37278L99.2621 6.38188L99.9559 5.052ZM92.5399 5.016L91.8461 3.68607L91.8341 3.69247L92.5399 5.016ZM89.9839 7.464L88.6925 6.70091L88.6861 6.71189L88.6798 6.72299L89.9839 7.464ZM89.9839 14.664L88.6798 15.405L88.6861 15.4161L88.6925 15.4271L89.9839 14.664ZM92.5399 17.148L91.8115 18.4592L91.8287 18.4688L91.8461 18.4779L92.5399 17.148ZM104.432 2.064V18.696H107.432V2.064H104.432ZM104.432 18.696C104.432 21.6926 103.693 23.6014 102.512 24.7471L104.6 26.9009C106.587 24.9746 107.432 22.1314 107.432 18.696H104.432ZM102.495 24.7633C101.32 25.939 99.4085 26.664 96.4639 26.664V29.664C99.8554 29.664 102.672 28.829 104.617 26.8847L102.495 24.7633ZM96.4639 26.664C94.8652 26.664 93.3579 26.4235 91.9343 25.949L90.9856 28.795C92.73 29.3765 94.5587 29.664 96.4639 29.664V26.664ZM91.9211 25.9446C90.5237 25.4932 89.456 24.8822 88.6636 24.1479L86.6243 26.3481C87.7999 27.4378 89.2762 28.2428 90.9988 28.7994L91.9211 25.9446ZM88.892 26.0801L90.188 24.1361L87.6919 22.4719L86.3959 24.4159L88.892 26.0801ZM87.9397 24.4219C89.015 25.384 90.2955 26.1138 91.7541 26.627L92.7498 23.797C91.6164 23.3982 90.6888 22.856 89.9401 22.1861L87.9397 24.4219ZM91.7622 26.6298C93.2446 27.1419 94.7905 27.396 96.3919 27.396V24.396C95.1134 24.396 93.8993 24.1941 92.7417 23.7942L91.7622 26.6298ZM96.3919 27.396C98.9917 27.396 101.221 26.7884 102.745 25.2647L100.623 23.1433C99.8911 23.8756 98.5922 24.396 96.3919 24.396V27.396ZM102.733 25.276C104.265 23.7769 104.876 21.5788 104.876 19.02H101.876C101.876 21.1652 101.359 22.4231 100.635 23.132L102.733 25.276ZM104.876 19.02V16.608H101.876V19.02H104.876ZM102.124 15.7817C101.481 16.7555 100.645 17.486 99.5932 17.9925L100.895 20.6955C102.435 19.954 103.687 18.8605 104.628 17.4343L102.124 15.7817ZM99.5833 17.9973C98.537 18.5106 97.3504 18.78 95.9959 18.78V21.78C97.7615 21.78 99.4069 21.4254 100.905 20.6907L99.5833 17.9973ZM95.9959 18.78C94.4442 18.78 93.066 18.4466 91.8328 17.7997L90.4391 20.4563C92.1339 21.3454 93.9957 21.78 95.9959 21.78V18.78ZM91.8588 17.8137C90.6475 17.1475 89.7023 16.2404 89.0002 15.077L86.4317 16.627C87.4096 18.2476 88.7444 19.5245 90.4131 20.4423L91.8588 17.8137ZM89.0156 15.1031C88.3421 13.9344 87.9919 12.6006 87.9919 11.064H84.9919C84.9919 13.0794 85.4578 14.9376 86.4163 16.6009L89.0156 15.1031ZM87.9919 11.064C87.9919 9.52706 88.3422 8.20982 89.01 7.07058L86.4219 5.55342C85.4577 7.19818 84.9919 9.04894 84.9919 11.064H87.9919ZM89.0002 7.087C89.6999 5.92759 90.6396 5.03671 91.8418 4.39553L90.4301 1.74847C88.7523 2.64329 87.412 3.91241 86.4317 5.537L89.0002 7.087ZM91.8418 4.39553C93.0429 3.75497 94.4163 3.42 95.9959 3.42V0.419999C93.9756 0.419999 92.109 0.853025 90.4301 1.74847L91.8418 4.39553ZM95.9959 3.42C97.397 3.42 98.6154 3.70077 99.6811 4.23364L101.023 1.55036C99.4965 0.787225 97.8109 0.419999 95.9959 0.419999V3.42ZM99.6811 4.23364C100.736 4.76101 101.577 5.51443 102.225 6.51488L104.743 4.88512C103.807 3.43757 102.56 2.31899 101.023 1.55036L99.6811 4.23364ZM104.984 5.7V2.064H101.984V5.7H104.984ZM103.484 3.564H105.932V0.563999H103.484V3.564ZM96.2479 19.512C97.8333 19.512 99.311 19.1764 100.65 18.4779L99.2621 15.8181C98.3928 16.2716 97.3986 16.512 96.2479 16.512V19.512ZM100.672 18.4659C102.013 17.7371 103.073 16.7131 103.816 15.405L101.208 13.923C100.751 14.7269 100.107 15.3589 99.2397 15.8301L100.672 18.4659ZM103.803 15.4271C104.577 14.1182 104.948 12.65 104.948 11.064H101.948C101.948 12.166 101.695 13.0978 101.221 13.9009L103.803 15.4271ZM104.948 11.064C104.948 9.47857 104.577 8.01609 103.796 6.72387L101.228 8.27613C101.695 9.04791 101.948 9.96143 101.948 11.064H104.948ZM103.816 6.75898C103.07 5.44545 102.003 4.42804 100.65 3.72212L99.2621 6.38188C100.117 6.82795 100.754 7.44255 101.208 8.24101L103.816 6.75898ZM100.684 3.74076C99.3545 3.00194 97.862 2.652 96.2479 2.652V5.652C97.4179 5.652 98.3974 5.90206 99.2275 6.36324L100.684 3.74076ZM96.2479 2.652C94.6626 2.652 93.1848 2.98765 91.8461 3.68612L93.2338 6.34588C94.103 5.89235 95.0973 5.652 96.2479 5.652V2.652ZM91.8341 3.69247C90.5106 4.3983 89.4563 5.40844 88.6925 6.70091L91.2753 8.22709C91.7596 7.40756 92.4093 6.78569 93.2458 6.33953L91.8341 3.69247ZM88.6798 6.72299C87.9381 8.0283 87.5839 9.48856 87.5839 11.064H90.5839C90.5839 9.95144 90.8298 9.0117 91.2881 8.20501L88.6798 6.72299ZM87.5839 11.064C87.5839 12.6394 87.9381 14.0997 88.6798 15.405L91.2881 13.923C90.8298 13.1163 90.5839 12.1766 90.5839 11.064H87.5839ZM88.6925 15.4271C89.4532 16.7143 90.5002 17.7308 91.8115 18.4592L93.2684 15.8368C92.4196 15.3652 91.7627 14.7257 91.2753 13.9009L88.6925 15.4271ZM91.8461 18.4779C93.1848 19.1764 94.6626 19.512 96.2479 19.512V16.512C95.0973 16.512 94.103 16.2716 93.2338 15.8181L91.8461 18.4779ZM149.455 2.064H150.955V0.563999H149.455V2.064ZM147.079 25.824L146.035 24.7471L146.027 24.7552L146.019 24.7633L147.079 25.824ZM134.983 27.372L135.458 25.9489L135.445 25.9446L134.983 27.372ZM131.167 25.248L129.919 24.4159L129.21 25.4794L130.148 26.3481L131.167 25.248ZM132.463 23.304L133.464 22.1861L132.175 21.0329L131.215 22.4719L132.463 23.304ZM135.775 25.212L135.278 26.627L135.286 26.6298L135.775 25.212ZM145.207 24.204L144.158 23.132L144.152 23.1376L144.147 23.1433L145.207 24.204ZM146.899 16.608H148.399V11.6122L145.647 15.7817L146.899 16.608ZM143.767 19.344L143.117 17.9925L143.107 17.9973L143.767 19.344ZM134.659 19.128L133.936 20.4423L133.949 20.4495L133.963 20.4563L134.659 19.128ZM131.239 15.852L129.94 16.6009L129.947 16.614L129.955 16.627L131.239 15.852ZM131.239 6.312L129.955 5.537L129.95 5.54518L129.945 5.55342L131.239 6.312ZM134.659 3.072L135.365 4.39553L135.365 4.39553L134.659 3.072ZM143.875 2.892L144.546 1.55036L144.546 1.55036L143.875 2.892ZM147.007 5.7L145.748 6.51488L148.507 10.7793V5.7H147.007ZM147.007 2.064V0.563999H145.507V2.064H147.007ZM143.479 17.148L144.173 18.4779L144.184 18.472L144.196 18.4659L143.479 17.148ZM146.035 14.664L144.744 13.9009L144.737 13.9119L144.731 13.923L146.035 14.664ZM146.035 7.5L144.731 8.24101L144.741 8.25871L144.752 8.27613L146.035 7.5ZM143.479 5.052L142.751 6.36324L142.768 6.37278L142.786 6.38188L143.479 5.052ZM136.063 5.016L135.369 3.68607L135.357 3.69247L136.063 5.016ZM133.507 7.464L132.216 6.70091L132.209 6.71189L132.203 6.72299L133.507 7.464ZM133.507 14.664L132.203 15.405L132.209 15.4161L132.216 15.4271L133.507 14.664ZM136.063 17.148L135.335 18.4592L135.352 18.4688L135.37 18.4779L136.063 17.148ZM147.955 2.064V18.696H150.955V2.064H147.955ZM147.955 18.696C147.955 21.6926 147.217 23.6014 146.035 24.7471L148.124 26.9009C150.11 24.9746 150.955 22.1314 150.955 18.696H147.955ZM146.019 24.7633C144.843 25.939 142.932 26.664 139.987 26.664V29.664C143.379 29.664 146.196 28.829 148.14 26.8847L146.019 24.7633ZM139.987 26.664C138.389 26.664 136.881 26.4235 135.458 25.949L134.509 28.795C136.253 29.3765 138.082 29.664 139.987 29.664V26.664ZM135.445 25.9446C134.047 25.4932 132.979 24.8822 132.187 24.1479L130.148 26.3481C131.323 27.4378 132.8 28.2428 134.522 28.7994L135.445 25.9446ZM132.415 26.0801L133.711 24.1361L131.215 22.4719L129.919 24.4159L132.415 26.0801ZM131.463 24.4219C132.538 25.384 133.819 26.1138 135.278 26.627L136.273 23.797C135.14 23.3982 134.212 22.856 133.464 22.1861L131.463 24.4219ZM135.286 26.6298C136.768 27.1419 138.314 27.396 139.915 27.396V24.396C138.637 24.396 137.423 24.1941 136.265 23.7942L135.286 26.6298ZM139.915 27.396C142.515 27.396 144.744 26.7884 146.268 25.2647L144.147 23.1433C143.414 23.8756 142.116 24.396 139.915 24.396V27.396ZM146.257 25.276C147.788 23.7769 148.399 21.5788 148.399 19.02H145.399C145.399 21.1652 144.883 22.4231 144.158 23.132L146.257 25.276ZM148.399 19.02V16.608H145.399V19.02H148.399ZM145.647 15.7817C145.005 16.7555 144.169 17.486 143.117 17.9925L144.418 20.6955C145.958 19.954 147.21 18.8605 148.151 17.4343L145.647 15.7817ZM143.107 17.9973C142.06 18.5106 140.874 18.78 139.519 18.78V21.78C141.285 21.78 142.93 21.4254 144.428 20.6907L143.107 17.9973ZM139.519 18.78C137.968 18.78 136.589 18.4466 135.356 17.7997L133.963 20.4563C135.657 21.3454 137.519 21.78 139.519 21.78V18.78ZM135.382 17.8137C134.171 17.1475 133.226 16.2404 132.524 15.077L129.955 16.627C130.933 18.2476 132.268 19.5245 133.936 20.4423L135.382 17.8137ZM132.539 15.1031C131.866 13.9344 131.515 12.6006 131.515 11.064H128.515C128.515 13.0794 128.981 14.9376 129.94 16.6009L132.539 15.1031ZM131.515 11.064C131.515 9.52706 131.866 8.20982 132.533 7.07058L129.945 5.55342C128.981 7.19818 128.515 9.04894 128.515 11.064H131.515ZM132.524 7.087C133.223 5.92759 134.163 5.03671 135.365 4.39553L133.953 1.74847C132.276 2.64329 130.935 3.91241 129.955 5.537L132.524 7.087ZM135.365 4.39553C136.566 3.75497 137.94 3.42 139.519 3.42V0.419999C137.499 0.419999 135.632 0.853025 133.953 1.74847L135.365 4.39553ZM139.519 3.42C140.92 3.42 142.139 3.70077 143.205 4.23364L144.546 1.55036C143.02 0.787225 141.334 0.419999 139.519 0.419999V3.42ZM143.205 4.23364C144.259 4.76101 145.101 5.51443 145.748 6.51488L148.267 4.88512C147.33 3.43757 146.083 2.31899 144.546 1.55036L143.205 4.23364ZM148.507 5.7V2.064H145.507V5.7H148.507ZM147.007 3.564H149.455V0.563999H147.007V3.564ZM139.771 19.512C141.357 19.512 142.834 19.1764 144.173 18.4779L142.786 15.8181C141.916 16.2716 140.922 16.512 139.771 16.512V19.512ZM144.196 18.4659C145.537 17.7371 146.596 16.7131 147.34 15.405L144.731 13.923C144.274 14.7269 143.63 15.3589 142.763 15.8301L144.196 18.4659ZM147.327 15.4271C148.1 14.1182 148.471 12.65 148.471 11.064H145.471C145.471 12.166 145.219 13.0978 144.744 13.9009L147.327 15.4271ZM148.471 11.064C148.471 9.47857 148.1 8.01609 147.319 6.72387L144.752 8.27613C145.218 9.04791 145.471 9.96143 145.471 11.064H148.471ZM147.34 6.75898C146.593 5.44545 145.526 4.42804 144.173 3.72212L142.786 6.38188C143.641 6.82795 144.278 7.44255 144.731 8.24101L147.34 6.75898ZM144.208 3.74076C142.878 3.00194 141.385 2.652 139.771 2.652V5.652C140.941 5.652 141.921 5.90206 142.751 6.36324L144.208 3.74076ZM139.771 2.652C138.186 2.652 136.708 2.98765 135.37 3.68612L136.757 6.34588C137.626 5.89235 138.621 5.652 139.771 5.652V2.652ZM135.357 3.69247C134.034 4.3983 132.98 5.40844 132.216 6.70091L134.799 8.22709C135.283 7.40756 135.933 6.78569 136.769 6.33953L135.357 3.69247ZM132.203 6.72299C131.462 8.0283 131.107 9.48856 131.107 11.064H134.107C134.107 9.95144 134.353 9.0117 134.812 8.20501L132.203 6.72299ZM131.107 11.064C131.107 12.6394 131.462 14.0997 132.203 15.405L134.812 13.923C134.353 13.1163 134.107 12.1766 134.107 11.064H131.107ZM132.216 15.4271C132.977 16.7143 134.024 17.7308 135.335 18.4592L136.792 15.8368C135.943 15.3652 135.286 14.7257 134.799 13.9009L132.216 15.4271ZM135.37 18.4779C136.708 19.1764 138.186 19.512 139.771 19.512V16.512C138.621 16.512 137.626 16.2716 136.757 15.8181L135.37 18.4779ZM168.915 3.792L167.885 4.88197L167.89 4.88696L167.895 4.8919L168.915 3.792ZM170.895 21V22.5H172.395V21H170.895ZM168.447 21H166.947V22.5H168.447V21ZM168.447 18.048H169.947V12.5163L167.153 17.2902L168.447 18.048ZM165.891 20.352L165.232 19.0046L165.22 19.0104L165.891 20.352ZM156.891 19.668L157.834 18.5011L156.891 19.668ZM156.747 11.784L155.784 10.6336L155.779 10.6385L155.773 10.6434L156.747 11.784ZM168.339 10.308V11.808H169.839V10.308H168.339ZM166.971 5.448L165.939 6.53693L165.947 6.54418L165.955 6.55132L166.971 5.448ZM159.519 4.764L160.012 6.18074L160.025 6.176L160.039 6.17099L159.519 4.764ZM156.675 6.384L155.391 7.1593L156.318 8.69469L157.665 7.51075L156.675 6.384ZM155.523 4.476L154.552 3.33309L153.58 4.15926L154.239 5.2513L155.523 4.476ZM158.979 2.604L159.438 4.03204L159.45 4.02835L159.461 4.02447L158.979 2.604ZM166.035 18.192L166.833 19.4623L166.843 19.4558L166.854 19.449L166.035 18.192ZM168.339 15.312L169.73 15.8737L169.839 15.6034V15.312H168.339ZM168.339 12.216H169.839V10.716H168.339V12.216ZM158.799 18.228L157.883 19.4157L157.894 19.424L157.905 19.4321L158.799 18.228ZM163.227 3.42C165.456 3.42 166.931 3.98019 167.885 4.88197L169.946 2.70203C168.259 1.10781 165.942 0.419999 163.227 0.419999V3.42ZM167.895 4.8919C168.814 5.74364 169.395 7.10673 169.395 9.264H172.395C172.395 6.57327 171.656 4.28836 169.935 2.6921L167.895 4.8919ZM169.395 9.264V21H172.395V9.264H169.395ZM170.895 19.5H168.447V22.5H170.895V19.5ZM169.947 21V18.048H166.947V21H169.947ZM167.153 17.2902C166.741 17.9939 166.123 18.5687 165.232 19.0047L166.55 21.6993C167.916 21.0313 169.001 20.0701 169.742 18.8058L167.153 17.2902ZM165.22 19.0104C164.369 19.4359 163.29 19.68 161.931 19.68V22.68C163.644 22.68 165.205 22.3721 166.562 21.6936L165.22 19.0104ZM161.931 19.68C160.053 19.68 158.741 19.2337 157.834 18.5011L155.949 20.8349C157.538 22.1183 159.585 22.68 161.931 22.68V19.68ZM157.834 18.5011C156.951 17.7883 156.519 16.8917 156.519 15.672H153.519C153.519 17.7643 154.335 19.5317 155.949 20.8349L157.834 18.5011ZM156.519 15.672C156.519 14.4721 156.926 13.6042 157.721 12.9246L155.773 10.6434C154.265 11.9318 153.519 13.6559 153.519 15.672H156.519ZM157.71 12.9344C158.488 12.2835 159.921 11.808 162.327 11.808V8.808C159.645 8.808 157.359 9.31647 155.784 10.6336L157.71 12.9344ZM162.327 11.808H168.339V8.808H162.327V11.808ZM169.839 10.308V9.156H166.839V10.308H169.839ZM169.839 9.156C169.839 7.24419 169.297 5.55108 167.987 4.34468L165.955 6.55132C166.469 7.02492 166.839 7.80381 166.839 9.156H169.839ZM168.003 4.35907C166.718 3.14208 164.958 2.652 162.975 2.652V5.652C164.496 5.652 165.4 6.02591 165.939 6.53693L168.003 4.35907ZM162.975 2.652C161.601 2.652 160.273 2.88628 158.999 3.35701L160.039 6.17099C160.973 5.82572 161.949 5.652 162.975 5.652V2.652ZM159.026 3.34725C157.759 3.78798 156.637 4.42017 155.685 5.25725L157.665 7.51075C158.297 6.95582 159.071 6.50802 160.012 6.18074L159.026 3.34725ZM157.959 5.6087L156.807 3.7007L154.239 5.2513L155.391 7.1593L157.959 5.6087ZM156.495 5.61891C157.287 4.94527 158.259 4.41091 159.438 4.03204L158.52 1.17596C157.011 1.66109 155.679 2.37472 154.552 3.33309L156.495 5.61891ZM159.461 4.02447C160.642 3.62364 161.895 3.42 163.227 3.42V0.419999C161.583 0.419999 160.004 0.672354 158.497 1.18353L159.461 4.02447ZM162.327 20.664C163.997 20.664 165.521 20.2858 166.833 19.4623L165.237 16.9217C164.485 17.3942 163.537 17.664 162.327 17.664V20.664ZM166.854 19.449C168.167 18.5937 169.122 17.3789 169.73 15.8737L166.948 14.7503C166.548 15.7411 165.967 16.4463 165.217 16.935L166.854 19.449ZM169.839 15.312V12.216H166.839V15.312H169.839ZM168.339 10.716H162.399V13.716H168.339V10.716ZM162.399 10.716C160.651 10.716 159.073 11.0119 157.897 11.831C156.622 12.7188 156.039 14.0623 156.039 15.6H159.039C159.039 14.8817 159.266 14.5332 159.611 14.293C160.055 13.9841 160.907 13.716 162.399 13.716V10.716ZM156.039 15.6C156.039 17.147 156.658 18.4705 157.883 19.4157L159.715 17.0403C159.261 16.6895 159.039 16.261 159.039 15.6H156.039ZM157.905 19.4321C159.096 20.3169 160.631 20.664 162.327 20.664V17.664C160.999 17.664 160.183 17.3871 159.694 17.0239L157.905 19.4321ZM194.396 12.324V13.824H195.829L195.894 12.3921L194.396 12.324ZM178.556 12.324V10.824H176.942L177.06 12.4335L178.556 12.324ZM180.824 17.112L179.824 18.2299L179.829 18.2348L179.835 18.2396L180.824 17.112ZM189.248 18.3L189.822 19.6856L189.837 19.6797L189.851 19.6735L189.248 18.3ZM191.804 16.428L192.936 15.4437L191.812 14.1515L190.679 15.4356L191.804 16.428ZM193.244 18.084L194.396 19.0443L195.214 18.0633L194.376 17.0997L193.244 18.084ZM190.076 20.388L189.501 19.0026L189.491 19.0065L190.076 20.388ZM180.752 19.956L180.014 21.2622L180.027 21.2693L180.039 21.276L180.752 19.956ZM177.26 16.5L175.959 17.2465L175.959 17.2465L177.26 16.5ZM177.188 6.564L175.878 5.83371L175.873 5.84196L175.868 5.85027L177.188 6.564ZM180.5 3.144L179.751 1.84432L179.741 1.84995L180.5 3.144ZM193.244 6.564L191.924 7.27774L191.929 7.28688L193.244 6.564ZM194.432 11.532L195.93 11.6001L195.932 11.5661V11.532H194.432ZM180.644 5.88L181.672 6.9723L181.672 6.97168L180.644 5.88ZM178.556 10.416L177.062 10.2819L176.915 11.916H178.556V10.416ZM191.984 10.416V11.916H193.624L193.478 10.2819L191.984 10.416ZM189.86 5.88L188.821 6.96166L188.831 6.97204L188.842 6.9822L189.86 5.88ZM194.396 10.824H178.556V13.824H194.396V10.824ZM177.06 12.4335C177.23 14.7572 178.143 16.7261 179.824 18.2299L181.824 15.9941C180.769 15.0499 180.17 13.8268 180.052 12.2145L177.06 12.4335ZM179.835 18.2396C181.516 19.7148 183.613 20.412 186.008 20.412V17.412C184.227 17.412 182.867 16.9092 181.813 15.9844L179.835 18.2396ZM186.008 20.412C187.36 20.412 188.638 20.1766 189.822 19.6856L188.673 16.9144C187.889 17.2394 187.007 17.412 186.008 17.412V20.412ZM189.851 19.6735C191.037 19.1527 192.066 18.3977 192.929 17.4204L190.679 15.4356C190.101 16.0903 189.427 16.5833 188.645 16.9265L189.851 19.6735ZM190.672 17.4123L192.112 19.0683L194.376 17.0997L192.936 15.4437L190.672 17.4123ZM192.091 17.1237C191.414 17.9361 190.56 18.5628 189.501 19.0026L190.651 21.7734C192.135 21.1572 193.393 20.2479 194.396 19.0443L192.091 17.1237ZM189.491 19.0065C188.449 19.4477 187.27 19.68 185.936 19.68V22.68C187.625 22.68 189.207 22.3843 190.66 21.7695L189.491 19.0065ZM185.936 19.68C184.207 19.68 182.73 19.3191 181.464 18.636L180.039 21.276C181.798 22.2249 183.776 22.68 185.936 22.68V19.68ZM181.489 18.6498C180.233 17.9406 179.265 16.9806 178.561 15.7535L175.959 17.2465C176.935 18.9474 178.295 20.2914 180.014 21.2622L181.489 18.6498ZM178.561 15.7535C177.863 14.5379 177.5 13.1436 177.5 11.532H174.5C174.5 13.6164 174.976 15.5341 175.959 17.2465L178.561 15.7535ZM177.5 11.532C177.5 9.90523 177.846 8.49915 178.507 7.27773L175.868 5.85027C174.945 7.55685 174.5 9.46277 174.5 11.532H177.5ZM178.498 7.29429C179.189 6.05459 180.106 5.11333 181.258 4.43805L179.741 1.84995C178.109 2.80667 176.819 4.14541 175.878 5.83371L178.498 7.29429ZM181.249 4.44364C182.421 3.76835 183.743 3.42 185.252 3.42V0.419999C183.256 0.419999 181.411 0.887647 179.751 1.84435L181.249 4.44364ZM185.252 3.42C186.761 3.42 188.067 3.76837 189.209 4.43805L190.726 1.84995C189.085 0.887626 187.247 0.419999 185.252 0.419999V3.42ZM189.209 4.43805C190.357 5.11094 191.259 6.04677 191.924 7.27773L194.563 5.85027C193.645 4.15323 192.362 2.80906 190.726 1.84995L189.209 4.43805ZM191.929 7.28688C192.584 8.47618 192.932 9.87715 192.932 11.532H195.932C195.932 9.44285 195.488 7.53182 194.558 5.84112L191.929 7.28688ZM192.933 11.4639L192.897 12.2559L195.894 12.3921L195.93 11.6001L192.933 11.4639ZM185.252 2.616C183.072 2.616 181.16 3.33226 179.615 4.78832L181.672 6.97168C182.623 6.07574 183.783 5.616 185.252 5.616V2.616ZM179.616 4.7877C178.092 6.22153 177.258 8.09068 177.062 10.2819L180.05 10.5501C180.189 8.99732 180.747 7.84246 181.672 6.9723L179.616 4.7877ZM178.556 11.916H191.984V8.916H178.556V11.916ZM193.478 10.2819C193.28 8.08197 192.429 6.20986 190.877 4.77779L188.842 6.9822C189.787 7.85414 190.351 9.00603 190.49 10.5501L193.478 10.2819ZM190.899 4.79834C189.37 3.32892 187.45 2.616 185.252 2.616V5.616C186.75 5.616 187.902 6.07908 188.821 6.96166L190.899 4.79834Z" fill="black"/>
</svg>
