<svg width="156" height="31" viewBox="0 0 156 31" fill="none" xmlns="http://www.w3.org/2000/svg">
<path d="M25.18 9.92C27.556 9.92 29.416 10.604 30.76 11.972C32.128 13.34 32.812 15.356 32.812 18.02V29H30.256V18.272C30.256 16.304 29.776 14.804 28.816 13.772C27.88 12.74 26.548 12.224 24.82 12.224C22.852 12.224 21.304 12.836 20.176 14.06C19.048 15.26 18.484 16.928 18.484 19.064V29H15.928V18.272C15.928 16.304 15.448 14.804 14.488 13.772C13.552 12.74 12.208 12.224 10.456 12.224C8.512 12.224 6.964 12.836 5.812 14.06C4.684 15.26 4.12 16.928 4.12 19.064V29H1.564V10.064H4.012V13.52C4.684 12.368 5.62 11.48 6.82 10.856C8.02 10.232 9.4 9.92 10.96 9.92C12.544 9.92 13.912 10.256 15.064 10.928C16.24 11.6 17.116 12.596 17.692 13.916C18.388 12.668 19.384 11.696 20.68 11C22 10.28 23.5 9.92 25.18 9.92ZM39.7437 10.064H42.2997V29H39.7437V10.064ZM41.0397 5.924C40.5117 5.924 40.0677 5.744 39.7077 5.384C39.3477 5.024 39.1677 4.592 39.1677 4.088C39.1677 3.608 39.3477 3.188 39.7077 2.828C40.0677 2.468 40.5117 2.288 41.0397 2.288C41.5677 2.288 42.0117 2.468 42.3717 2.828C42.7317 3.164 42.9117 3.572 42.9117 4.052C42.9117 4.58 42.7317 5.024 42.3717 5.384C42.0117 5.744 41.5677 5.924 41.0397 5.924ZM59.0597 9.92C61.4357 9.92 63.3197 10.616 64.7117 12.008C66.1277 13.376 66.8357 15.38 66.8357 18.02V29H64.2797V18.272C64.2797 16.304 63.7877 14.804 62.8037 13.772C61.8197 12.74 60.4157 12.224 58.5917 12.224C56.5517 12.224 54.9317 12.836 53.7317 14.06C52.5557 15.26 51.9677 16.928 51.9677 19.064V29H49.4117V10.064H51.8597V13.556C52.5557 12.404 53.5157 11.516 54.7397 10.892C55.9877 10.244 57.4277 9.92 59.0597 9.92ZM80.7949 19.496L76.3309 23.6V29H73.7749V2.288H76.3309V20.396L87.6349 10.064H90.8029L82.7029 17.804L91.5589 29H88.4269L80.7949 19.496ZM102.363 29.18C100.539 29.18 98.8946 28.772 97.4306 27.956C95.9666 27.116 94.8146 25.964 93.9746 24.5C93.1346 23.036 92.7146 21.38 92.7146 19.532C92.7146 17.684 93.1346 16.028 93.9746 14.564C94.8146 13.1 95.9666 11.96 97.4306 11.144C98.8946 10.328 100.539 9.92 102.363 9.92C104.187 9.92 105.831 10.328 107.295 11.144C108.759 11.96 109.899 13.1 110.715 14.564C111.555 16.028 111.975 17.684 111.975 19.532C111.975 21.38 111.555 23.036 110.715 24.5C109.899 25.964 108.759 27.116 107.295 27.956C105.831 28.772 104.187 29.18 102.363 29.18ZM102.363 26.912C103.707 26.912 104.907 26.612 105.963 26.012C107.043 25.388 107.883 24.512 108.483 23.384C109.083 22.256 109.383 20.972 109.383 19.532C109.383 18.092 109.083 16.808 108.483 15.68C107.883 14.552 107.043 13.688 105.963 13.088C104.907 12.464 103.707 12.152 102.363 12.152C101.019 12.152 99.8066 12.464 98.7266 13.088C97.6706 13.688 96.8306 14.552 96.2066 15.68C95.6066 16.808 95.3066 18.092 95.3066 19.532C95.3066 20.972 95.6066 22.256 96.2066 23.384C96.8306 24.512 97.6706 25.388 98.7266 26.012C99.8066 26.612 101.019 26.912 102.363 26.912Z" fill="black"/>
<path d="M30.76 11.972L29.69 13.0233L29.6993 13.0327L30.76 11.972ZM32.812 29V30.5H34.312V29H32.812ZM30.256 29H28.756V30.5H30.256V29ZM28.816 13.772L27.7049 14.7797L27.7113 14.7867L27.7177 14.7937L28.816 13.772ZM20.176 14.06L21.2689 15.0874L21.274 15.082L21.279 15.0765L20.176 14.06ZM18.484 29V30.5H19.984V29H18.484ZM15.928 29H14.428V30.5H15.928V29ZM14.488 13.772L13.3769 14.7797L13.3833 14.7867L13.3897 14.7937L14.488 13.772ZM5.812 14.06L4.7197 13.032L4.71906 13.0326L5.812 14.06ZM4.12 29V30.5H5.62V29H4.12ZM1.564 29H0.0640002V30.5H1.564V29ZM1.564 10.064V8.564H0.0640002V10.064H1.564ZM4.012 10.064H5.512V8.564H4.012V10.064ZM4.012 13.52H2.512V19.0684L5.30767 14.2758L4.012 13.52ZM6.82 10.856L7.51203 12.1868L7.51203 12.1868L6.82 10.856ZM15.064 10.928L14.3082 12.2237L14.3198 12.2304L15.064 10.928ZM17.692 13.916L16.3172 14.5159L17.5278 17.2901L19.002 14.6466L17.692 13.916ZM20.68 11L21.3897 12.3215L21.3983 12.3168L20.68 11ZM25.18 11.42C27.2557 11.42 28.6924 12.0078 29.69 13.0232L31.83 10.9208C30.1396 9.20021 27.8563 8.42 25.18 8.42V11.42ZM29.6993 13.0327C30.6936 14.027 31.312 15.6007 31.312 18.02H34.312C34.312 15.1113 33.5624 12.653 31.8207 10.9113L29.6993 13.0327ZM31.312 18.02V29H34.312V18.02H31.312ZM32.812 27.5H30.256V30.5H32.812V27.5ZM31.756 29V18.272H28.756V29H31.756ZM31.756 18.272C31.756 16.0759 31.2196 14.1536 29.9143 12.7503L27.7177 14.7937C28.3324 15.4544 28.756 16.5321 28.756 18.272H31.756ZM29.9271 12.7643C28.6407 11.346 26.8618 10.724 24.82 10.724V13.724C26.2342 13.724 27.1193 14.134 27.7049 14.7797L29.9271 12.7643ZM24.82 10.724C22.5162 10.724 20.5369 11.455 19.073 13.0435L21.279 15.0765C22.0711 14.217 23.1878 13.724 24.82 13.724V10.724ZM19.0831 13.0326C17.6231 14.5858 16.984 16.6634 16.984 19.064H19.984C19.984 17.1926 20.4729 15.9342 21.2689 15.0874L19.0831 13.0326ZM16.984 19.064V29H19.984V19.064H16.984ZM18.484 27.5H15.928V30.5H18.484V27.5ZM17.428 29V18.272H14.428V29H17.428ZM17.428 18.272C17.428 16.0759 16.8916 14.1536 15.5863 12.7503L13.3897 14.7937C14.0044 15.4544 14.428 16.5321 14.428 18.272H17.428ZM15.5991 12.7643C14.3088 11.3417 12.5145 10.724 10.456 10.724V13.724C11.9015 13.724 12.7952 14.1383 13.3769 14.7797L15.5991 12.7643ZM10.456 10.724C8.16919 10.724 6.20028 11.4588 4.7197 13.032L6.9043 15.088C7.72772 14.2132 8.85481 13.724 10.456 13.724V10.724ZM4.71906 13.0326C3.25907 14.5858 2.62 16.6634 2.62 19.064H5.62C5.62 17.1926 6.10893 15.9342 6.90494 15.0874L4.71906 13.0326ZM2.62 19.064V29H5.62V19.064H2.62ZM4.12 27.5H1.564V30.5H4.12V27.5ZM3.064 29V10.064H0.0640002V29H3.064ZM1.564 11.564H4.012V8.564H1.564V11.564ZM2.512 10.064V13.52H5.512V10.064H2.512ZM5.30767 14.2758C5.83471 13.3723 6.55977 12.682 7.51203 12.1868L6.12797 9.52517C4.68023 10.278 3.53329 11.3637 2.71633 12.7642L5.30767 14.2758ZM7.51203 12.1868C8.46762 11.6899 9.60379 11.42 10.96 11.42V8.42C9.19621 8.42 7.57238 8.77408 6.12797 9.52517L7.51203 12.1868ZM10.96 11.42C12.3285 11.42 13.4253 11.7087 14.3082 12.2237L15.8198 9.63233C14.3987 8.80334 12.7595 8.42 10.96 8.42V11.42ZM14.3198 12.2304C15.1972 12.7317 15.8616 13.4719 16.3172 14.5159L19.0668 13.3161C18.3704 11.7201 17.2828 10.4683 15.8082 9.62563L14.3198 12.2304ZM19.002 14.6466C19.5542 13.6565 20.3383 12.8861 21.3897 12.3215L19.9703 9.67851C18.4297 10.5059 17.2218 11.6795 16.382 13.1854L19.002 14.6466ZM21.3983 12.3168C22.4731 11.7306 23.721 11.42 25.18 11.42V8.42C23.279 8.42 21.5269 8.8294 19.9617 9.68316L21.3983 12.3168ZM39.7437 10.064V8.564H38.2437V10.064H39.7437ZM42.2997 10.064H43.7997V8.564H42.2997V10.064ZM42.2997 29V30.5H43.7997V29H42.2997ZM39.7437 29H38.2437V30.5H39.7437V29ZM39.7077 2.828L38.647 1.76734L38.647 1.76734L39.7077 2.828ZM42.3717 2.828L41.311 3.88866L41.3293 3.90694L41.3482 3.92458L42.3717 2.828ZM39.7437 11.564H42.2997V8.564H39.7437V11.564ZM40.7997 10.064V29H43.7997V10.064H40.7997ZM42.2997 27.5H39.7437V30.5H42.2997V27.5ZM41.2437 29V10.064H38.2437V29H41.2437ZM41.0397 4.424C40.893 4.424 40.8356 4.39059 40.7683 4.32334L38.647 6.44466C39.2998 7.0974 40.1303 7.424 41.0397 7.424V4.424ZM40.7683 4.32334C40.6864 4.24143 40.6677 4.18966 40.6677 4.088H37.6677C37.6677 4.99434 38.0089 5.80657 38.647 6.44466L40.7683 4.32334ZM40.6677 4.088C40.6677 4.03183 40.6707 3.98629 40.7683 3.88866L38.647 1.76734C38.0247 2.38971 37.6677 3.18417 37.6677 4.088H40.6677ZM40.7683 3.88866C40.8356 3.8214 40.893 3.788 41.0397 3.788V0.787998C40.1303 0.787998 39.2998 1.11459 38.647 1.76734L40.7683 3.88866ZM41.0397 3.788C41.1863 3.788 41.2438 3.8214 41.311 3.88866L43.4323 1.76734C42.7796 1.11459 41.949 0.787998 41.0397 0.787998V3.788ZM41.3482 3.92458C41.3729 3.94764 41.3868 3.96466 41.394 3.97459C41.401 3.98423 41.4035 3.98964 41.4043 3.99146C41.4051 3.99322 41.4064 3.99651 41.4078 4.00349C41.4093 4.01078 41.4117 4.02617 41.4117 4.052H44.4117C44.4117 3.14418 44.0502 2.34278 43.3952 1.73141L41.3482 3.92458ZM41.4117 4.052C41.4117 4.19865 41.3783 4.25608 41.311 4.32334L43.4323 6.44466C44.0851 5.79192 44.4117 4.96135 44.4117 4.052H41.4117ZM41.311 4.32334C41.2438 4.39059 41.1863 4.424 41.0397 4.424V7.424C41.949 7.424 42.7796 7.0974 43.4323 6.44466L41.311 4.32334ZM64.7117 12.008L63.651 13.0687L63.6601 13.0778L63.6694 13.0868L64.7117 12.008ZM66.8357 29V30.5H68.3357V29H66.8357ZM64.2797 29H62.7797V30.5H64.2797V29ZM62.8037 13.772L61.7181 14.8071L61.7181 14.8071L62.8037 13.772ZM53.7317 14.06L52.6605 13.0099L52.6603 13.0101L53.7317 14.06ZM51.9677 29V30.5H53.4677V29H51.9677ZM49.4117 29H47.9117V30.5H49.4117V29ZM49.4117 10.064V8.564H47.9117V10.064H49.4117ZM51.8597 10.064H53.3597V8.564H51.8597V10.064ZM51.8597 13.556H50.3597V18.9395L53.1435 14.3317L51.8597 13.556ZM54.7397 10.892L55.421 12.2284L55.4309 12.2232L54.7397 10.892ZM59.0597 11.42C61.1258 11.42 62.5969 12.0146 63.651 13.0687L65.7723 10.9473C64.0424 9.21741 61.7455 8.42 59.0597 8.42V11.42ZM63.6694 13.0868C64.7035 14.0858 65.3357 15.6431 65.3357 18.02H68.3357C68.3357 15.1169 67.5518 12.6662 65.7539 10.9292L63.6694 13.0868ZM65.3357 18.02V29H68.3357V18.02H65.3357ZM66.8357 27.5H64.2797V30.5H66.8357V27.5ZM65.7797 29V18.272H62.7797V29H65.7797ZM65.7797 18.272C65.7797 16.067 65.2266 14.1394 63.8893 12.7369L61.7181 14.8071C62.3488 15.4686 62.7797 16.541 62.7797 18.272H65.7797ZM63.8893 12.7369C62.5484 11.3306 60.7049 10.724 58.5917 10.724V13.724C60.1264 13.724 61.091 14.1494 61.7181 14.8071L63.8893 12.7369ZM58.5917 10.724C56.2312 10.724 54.1956 11.4441 52.6605 13.0099L54.8028 15.1101C55.6677 14.2279 56.8722 13.724 58.5917 13.724V10.724ZM52.6603 13.0101C51.1403 14.5612 50.4677 16.6469 50.4677 19.064H53.4677C53.4677 17.2091 53.971 15.9588 54.803 15.1099L52.6603 13.0101ZM50.4677 19.064V29H53.4677V19.064H50.4677ZM51.9677 27.5H49.4117V30.5H51.9677V27.5ZM50.9117 29V10.064H47.9117V29H50.9117ZM49.4117 11.564H51.8597V8.564H49.4117V11.564ZM50.3597 10.064V13.556H53.3597V10.064H50.3597ZM53.1435 14.3317C53.6917 13.4243 54.4407 12.7281 55.4209 12.2284L54.0584 9.55564C52.5906 10.3039 51.4196 11.3837 50.5758 12.7803L53.1435 14.3317ZM55.4309 12.2232C56.4334 11.7027 57.6295 11.42 59.0597 11.42V8.42C57.2258 8.42 55.5419 8.78531 54.0484 9.56076L55.4309 12.2232ZM80.7949 19.496L81.9645 18.5568L80.9604 17.3063L79.7797 18.3917L80.7949 19.496ZM76.3309 23.6L75.3157 22.4957L74.8309 22.9415V23.6H76.3309ZM76.3309 29V30.5H77.8309V29H76.3309ZM73.7749 29H72.2749V30.5H73.7749V29ZM73.7749 2.288V0.787998H72.2749V2.288H73.7749ZM76.3309 2.288H77.8309V0.787998H76.3309V2.288ZM76.3309 20.396H74.8309V23.7992L77.3429 21.5032L76.3309 20.396ZM87.6349 10.064V8.564H87.0527L86.6229 8.95681L87.6349 10.064ZM90.8029 10.064L91.8392 11.1485L94.5439 8.564H90.8029V10.064ZM82.7029 17.804L81.6667 16.7195L80.6791 17.6632L81.5265 18.7346L82.7029 17.804ZM91.5589 29V30.5H94.658L92.7354 28.0694L91.5589 29ZM88.4269 29L87.2574 29.9392L87.7077 30.5H88.4269V29ZM79.7797 18.3917L75.3157 22.4957L77.3461 24.7043L81.8101 20.6003L79.7797 18.3917ZM74.8309 23.6V29H77.8309V23.6H74.8309ZM76.3309 27.5H73.7749V30.5H76.3309V27.5ZM75.2749 29V2.288H72.2749V29H75.2749ZM73.7749 3.788H76.3309V0.787998H73.7749V3.788ZM74.8309 2.288V20.396H77.8309V2.288H74.8309ZM77.3429 21.5032L88.6469 11.1712L86.6229 8.95681L75.3189 19.2888L77.3429 21.5032ZM87.6349 11.564H90.8029V8.564H87.6349V11.564ZM89.7667 8.97951L81.6667 16.7195L83.7392 18.8885L91.8392 11.1485L89.7667 8.97951ZM81.5265 18.7346L90.3825 29.9306L92.7354 28.0694L83.8794 16.8734L81.5265 18.7346ZM91.5589 27.5H88.4269V30.5H91.5589V27.5ZM89.5965 28.0608L81.9645 18.5568L79.6254 20.4352L87.2574 29.9392L89.5965 28.0608ZM97.4306 27.956L96.6841 29.2571L96.6922 29.2617L96.7003 29.2662L97.4306 27.956ZM93.9746 24.5L92.6735 25.2465L92.6735 25.2465L93.9746 24.5ZM93.9746 14.564L92.6735 13.8175L92.6735 13.8175L93.9746 14.564ZM97.4306 11.144L96.7003 9.83378L96.7003 9.83378L97.4306 11.144ZM107.295 11.144L108.025 9.83378L108.025 9.83378L107.295 11.144ZM110.715 14.564L109.404 15.2943L109.409 15.3024L109.414 15.3105L110.715 14.564ZM110.715 24.5L109.414 23.7535L109.409 23.7616L109.404 23.7697L110.715 24.5ZM107.295 27.956L108.025 29.2662L108.033 29.2617L108.041 29.2571L107.295 27.956ZM105.963 26.012L106.704 27.3162L106.713 27.3108L105.963 26.012ZM108.483 23.384L109.807 24.0884L109.807 24.0884L108.483 23.384ZM108.483 15.68L109.807 14.9756L109.807 14.9756L108.483 15.68ZM105.963 13.088L105.2 14.3794L105.217 14.3895L105.234 14.3992L105.963 13.088ZM98.7266 13.088L99.4676 14.3922L99.477 14.3868L98.7266 13.088ZM96.2066 15.68L94.894 14.9539L94.8881 14.9647L94.8823 14.9756L96.2066 15.68ZM96.2066 23.384L94.8823 24.0884L94.8881 24.0993L94.894 24.1101L96.2066 23.384ZM98.7266 26.012L97.9635 27.3034L97.9807 27.3135L97.9981 27.3232L98.7266 26.012ZM102.363 27.68C100.771 27.68 99.3822 27.3265 98.1609 26.6458L96.7003 29.2662C98.407 30.2175 100.306 30.68 102.363 30.68V27.68ZM98.1771 26.6549C96.9439 25.9474 95.9832 24.9867 95.2756 23.7535L92.6735 25.2465C93.6459 26.9413 94.9893 28.2846 96.6841 29.2571L98.1771 26.6549ZM95.2756 23.7535C94.5782 22.5379 94.2146 21.1436 94.2146 19.532H91.2146C91.2146 21.6164 91.691 23.5341 92.6735 25.2465L95.2756 23.7535ZM94.2146 19.532C94.2146 17.9204 94.5782 16.5261 95.2756 15.3105L92.6735 13.8175C91.691 15.5299 91.2146 17.4476 91.2146 19.532H94.2146ZM95.2756 15.3105C95.9811 14.081 96.9365 13.1366 98.1609 12.4542L96.7003 9.83378C94.9966 10.7834 93.6481 12.119 92.6735 13.8175L95.2756 15.3105ZM98.1609 12.4542C99.3822 11.7735 100.771 11.42 102.363 11.42V8.42C100.306 8.42 98.407 8.88251 96.7003 9.83378L98.1609 12.4542ZM102.363 11.42C103.954 11.42 105.343 11.7735 106.564 12.4542L108.025 9.83378C106.318 8.88251 104.419 8.42 102.363 8.42V11.42ZM106.564 12.4542C107.785 13.1345 108.724 14.0737 109.404 15.2943L112.025 13.8337C111.073 12.1263 109.732 10.7855 108.025 9.83378L106.564 12.4542ZM109.414 15.3105C110.111 16.5261 110.475 17.9204 110.475 19.532H113.475C113.475 17.4476 112.998 15.5299 112.016 13.8175L109.414 15.3105ZM110.475 19.532C110.475 21.1436 110.111 22.5379 109.414 23.7535L112.016 25.2465C112.998 23.5341 113.475 21.6164 113.475 19.532H110.475ZM109.404 23.7697C108.722 24.994 107.778 25.9495 106.548 26.6549L108.041 29.2571C109.74 28.2825 111.075 26.934 112.025 25.2303L109.404 23.7697ZM106.564 26.6458C105.343 27.3265 103.954 27.68 102.363 27.68V30.68C104.419 30.68 106.318 30.2175 108.025 29.2662L106.564 26.6458ZM102.363 28.412C103.938 28.412 105.398 28.0578 106.704 27.3162L105.222 24.7078C104.415 25.1662 103.475 25.412 102.363 25.412V28.412ZM106.713 27.3108C108.042 26.5427 109.078 25.458 109.807 24.0884L107.158 22.6796C106.687 23.566 106.043 24.2333 105.212 24.7132L106.713 27.3108ZM109.807 24.0884C110.536 22.7172 110.883 21.186 110.883 19.532H107.883C107.883 20.758 107.629 21.7948 107.158 22.6796L109.807 24.0884ZM110.883 19.532C110.883 17.878 110.536 16.3468 109.807 14.9756L107.158 16.3844C107.629 17.2692 107.883 18.306 107.883 19.532H110.883ZM109.807 14.9756C109.076 13.6013 108.033 12.5223 106.691 11.7768L105.234 14.3992C106.052 14.8537 106.689 15.5027 107.158 16.3844L109.807 14.9756ZM106.726 11.7966C105.417 11.0232 103.949 10.652 102.363 10.652V13.652C103.465 13.652 104.396 13.9048 105.2 14.3794L106.726 11.7966ZM102.363 10.652C100.776 10.652 99.3019 11.0232 97.9762 11.7892L99.477 14.3868C100.311 13.9048 101.261 13.652 102.363 13.652V10.652ZM97.9856 11.7838C96.6746 12.5287 95.6432 13.5997 94.894 14.9539L97.5191 16.4061C98.018 15.5043 98.6666 14.8473 99.4676 14.3922L97.9856 11.7838ZM94.8823 14.9756C94.1529 16.3468 93.8066 17.878 93.8066 19.532H96.8066C96.8066 18.306 97.0603 17.2692 97.5309 16.3844L94.8823 14.9756ZM93.8066 19.532C93.8066 21.186 94.1529 22.7172 94.8823 24.0884L97.5309 22.6796C97.0603 21.7948 96.8066 20.758 96.8066 19.532H93.8066ZM94.894 24.1101C95.6406 25.4597 96.6653 26.5363 97.9635 27.3034L99.4897 24.7206C98.6759 24.2397 98.0205 23.5643 97.5191 22.6579L94.894 24.1101ZM97.9981 27.3232C99.3202 28.0577 100.787 28.412 102.363 28.412V25.412C101.251 25.412 100.293 25.1663 99.4551 24.7008L97.9981 27.3232Z" fill="black"/>
<line x1="96" y1="2.5" x2="126" y2="2.5" stroke="black" stroke-width="5"/>
<path d="M119.304 29.18C117.48 29.18 115.836 28.772 114.372 27.956C112.908 27.116 111.756 25.964 110.916 24.5C110.076 23.036 109.656 21.38 109.656 19.532C109.656 17.684 110.076 16.028 110.916 14.564C111.756 13.1 112.908 11.96 114.372 11.144C115.836 10.328 117.48 9.92 119.304 9.92C121.128 9.92 122.772 10.328 124.236 11.144C125.7 11.96 126.84 13.1 127.656 14.564C128.496 16.028 128.916 17.684 128.916 19.532C128.916 21.38 128.496 23.036 127.656 24.5C126.84 25.964 125.7 27.116 124.236 27.956C122.772 28.772 121.128 29.18 119.304 29.18ZM119.304 26.912C120.648 26.912 121.848 26.612 122.904 26.012C123.984 25.388 124.824 24.512 125.424 23.384C126.024 22.256 126.324 20.972 126.324 19.532C126.324 18.092 126.024 16.808 125.424 15.68C124.824 14.552 123.984 13.688 122.904 13.088C121.848 12.464 120.648 12.152 119.304 12.152C117.96 12.152 116.748 12.464 115.668 13.088C114.612 13.688 113.772 14.552 113.148 15.68C112.548 16.808 112.248 18.092 112.248 19.532C112.248 20.972 112.548 22.256 113.148 23.384C113.772 24.512 114.612 25.388 115.668 26.012C116.748 26.612 117.96 26.912 119.304 26.912ZM141.154 19.496L136.69 23.6V29H134.134V2.288H136.69V20.396L147.994 10.064H151.162L143.062 17.804L151.918 29H148.786L141.154 19.496Z" fill="black"/>
<path d="M114.372 27.956L113.625 29.2571L113.634 29.2617L113.642 29.2662L114.372 27.956ZM110.916 24.5L109.615 25.2465L109.615 25.2465L110.916 24.5ZM110.916 14.564L109.615 13.8175L109.615 13.8175L110.916 14.564ZM114.372 11.144L113.642 9.83378L113.642 9.83378L114.372 11.144ZM124.236 11.144L124.966 9.83378L124.966 9.83378L124.236 11.144ZM127.656 14.564L126.346 15.2943L126.35 15.3024L126.355 15.3105L127.656 14.564ZM127.656 24.5L126.355 23.7535L126.35 23.7616L126.346 23.7697L127.656 24.5ZM124.236 27.956L124.966 29.2662L124.974 29.2617L124.983 29.2571L124.236 27.956ZM122.904 26.012L123.645 27.3162L123.654 27.3108L122.904 26.012ZM125.424 23.384L126.748 24.0884L126.748 24.0884L125.424 23.384ZM125.424 15.68L126.748 14.9756L126.748 14.9756L125.424 15.68ZM122.904 13.088L122.141 14.3794L122.158 14.3895L122.176 14.3992L122.904 13.088ZM115.668 13.088L116.409 14.3922L116.418 14.3868L115.668 13.088ZM113.148 15.68L111.835 14.9539L111.829 14.9647L111.824 14.9756L113.148 15.68ZM113.148 23.384L111.824 24.0884L111.829 24.0993L111.835 24.1101L113.148 23.384ZM115.668 26.012L114.905 27.3034L114.922 27.3135L114.94 27.3232L115.668 26.012ZM119.304 27.68C117.712 27.68 116.324 27.3265 115.102 26.6458L113.642 29.2662C115.348 30.2175 117.248 30.68 119.304 30.68V27.68ZM115.119 26.6549C113.885 25.9474 112.925 24.9867 112.217 23.7535L109.615 25.2465C110.587 26.9413 111.931 28.2846 113.625 29.2571L115.119 26.6549ZM112.217 23.7535C111.52 22.5379 111.156 21.1436 111.156 19.532H108.156C108.156 21.6164 108.632 23.5341 109.615 25.2465L112.217 23.7535ZM111.156 19.532C111.156 17.9204 111.52 16.5261 112.217 15.3105L109.615 13.8175C108.632 15.5299 108.156 17.4476 108.156 19.532H111.156ZM112.217 15.3105C112.923 14.081 113.878 13.1366 115.102 12.4542L113.642 9.83378C111.938 10.7834 110.589 12.119 109.615 13.8175L112.217 15.3105ZM115.102 12.4542C116.324 11.7735 117.712 11.42 119.304 11.42V8.42C117.248 8.42 115.348 8.88251 113.642 9.83378L115.102 12.4542ZM119.304 11.42C120.896 11.42 122.284 11.7735 123.506 12.4542L124.966 9.83378C123.26 8.88251 121.36 8.42 119.304 8.42V11.42ZM123.506 12.4542C124.726 13.1345 125.665 14.0737 126.346 15.2943L128.966 13.8337C128.015 12.1263 126.674 10.7855 124.966 9.83378L123.506 12.4542ZM126.355 15.3105C127.052 16.5261 127.416 17.9204 127.416 19.532H130.416C130.416 17.4476 129.94 15.5299 128.957 13.8175L126.355 15.3105ZM127.416 19.532C127.416 21.1436 127.052 22.5379 126.355 23.7535L128.957 25.2465C129.94 23.5341 130.416 21.6164 130.416 19.532H127.416ZM126.346 23.7697C125.663 24.994 124.719 25.9495 123.489 26.6549L124.983 29.2571C126.681 28.2825 128.017 26.934 128.966 25.2303L126.346 23.7697ZM123.506 26.6458C122.284 27.3265 120.896 27.68 119.304 27.68V30.68C121.36 30.68 123.26 30.2175 124.966 29.2662L123.506 26.6458ZM119.304 28.412C120.879 28.412 122.34 28.0578 123.645 27.3162L122.163 24.7078C121.356 25.1662 120.417 25.412 119.304 25.412V28.412ZM123.654 27.3108C124.984 26.5427 126.02 25.458 126.748 24.0884L124.1 22.6796C123.628 23.566 122.984 24.2333 122.154 24.7132L123.654 27.3108ZM126.748 24.0884C127.478 22.7172 127.824 21.186 127.824 19.532H124.824C124.824 20.758 124.57 21.7948 124.1 22.6796L126.748 24.0884ZM127.824 19.532C127.824 17.878 127.478 16.3468 126.748 14.9756L124.1 16.3844C124.57 17.2692 124.824 18.306 124.824 19.532H127.824ZM126.748 14.9756C126.017 13.6013 124.974 12.5223 123.632 11.7768L122.176 14.3992C122.994 14.8537 123.631 15.5027 124.1 16.3844L126.748 14.9756ZM123.667 11.7966C122.358 11.0232 120.89 10.652 119.304 10.652V13.652C120.406 13.652 121.338 13.9048 122.141 14.3794L123.667 11.7966ZM119.304 10.652C117.718 10.652 116.243 11.0232 114.918 11.7892L116.418 14.3868C117.253 13.9048 118.202 13.652 119.304 13.652V10.652ZM114.927 11.7838C113.616 12.5287 112.585 13.5997 111.835 14.9539L114.461 16.4061C114.959 15.5043 115.608 14.8473 116.409 14.3922L114.927 11.7838ZM111.824 14.9756C111.094 16.3468 110.748 17.878 110.748 19.532H113.748C113.748 18.306 114.002 17.2692 114.472 16.3844L111.824 14.9756ZM110.748 19.532C110.748 21.186 111.094 22.7172 111.824 24.0884L114.472 22.6796C114.002 21.7948 113.748 20.758 113.748 19.532H110.748ZM111.835 24.1101C112.582 25.4597 113.607 26.5363 114.905 27.3034L116.431 24.7206C115.617 24.2397 114.962 23.5643 114.461 22.6579L111.835 24.1101ZM114.94 27.3232C116.262 28.0577 117.728 28.412 119.304 28.412V25.412C118.192 25.412 117.234 25.1663 116.396 24.7008L114.94 27.3232ZM141.154 19.496L142.324 18.5568L141.32 17.3063L140.139 18.3917L141.154 19.496ZM136.69 23.6L135.675 22.4957L135.19 22.9415V23.6H136.69ZM136.69 29V30.5H138.19V29H136.69ZM134.134 29H132.634V30.5H134.134V29ZM134.134 2.288V0.787998H132.634V2.288H134.134ZM136.69 2.288H138.19V0.787998H136.69V2.288ZM136.69 20.396H135.19V23.7992L137.702 21.5032L136.69 20.396ZM147.994 10.064V8.564H147.412L146.982 8.95681L147.994 10.064ZM151.162 10.064L152.199 11.1485L154.903 8.564H151.162V10.064ZM143.062 17.804L142.026 16.7195L141.038 17.6632L141.886 18.7346L143.062 17.804ZM151.918 29V30.5H155.017L153.095 28.0694L151.918 29ZM148.786 29L147.617 29.9392L148.067 30.5H148.786V29ZM140.139 18.3917L135.675 22.4957L137.706 24.7043L142.17 20.6003L140.139 18.3917ZM135.19 23.6V29H138.19V23.6H135.19ZM136.69 27.5H134.134V30.5H136.69V27.5ZM135.634 29V2.288H132.634V29H135.634ZM134.134 3.788H136.69V0.787998H134.134V3.788ZM135.19 2.288V20.396H138.19V2.288H135.19ZM137.702 21.5032L149.006 11.1712L146.982 8.95681L135.678 19.2888L137.702 21.5032ZM147.994 11.564H151.162V8.564H147.994V11.564ZM150.126 8.97951L142.026 16.7195L144.099 18.8885L152.199 11.1485L150.126 8.97951ZM141.886 18.7346L150.742 29.9306L153.095 28.0694L144.239 16.8734L141.886 18.7346ZM151.918 27.5H148.786V30.5H151.918V27.5ZM149.956 28.0608L142.324 18.5568L139.985 20.4352L147.617 29.9392L149.956 28.0608Z" fill="black"/>
</svg>

